<svg id="Capa_1" enable-background="new 0 0 512 512" height="512" viewBox="0 0 512 512" width="512" xmlns="http://www.w3.org/2000/svg"><g><path d="m308.532 363.815-29.136-29.136c-1.208-1.208-1.887-2.847-1.887-4.556v-24.375c0-11.663-9.069-21.595-20.724-22.01-12.236-.435-22.293 9.355-22.293 21.494v24.891c0 1.709-.679 3.348-1.887 4.556l-29.136 29.136c-8.4 8.399-8.4 22.018 0 30.417 8.399 8.399 22.018 8.399 30.417 0l17.558-17.558c2.516-2.517 6.596-2.517 9.113 0l17.558 17.558c8.4 8.399 22.018 8.399 30.417 0 8.399-8.399 8.399-22.018 0-30.417z" fill="#9c9c9c"/><path d="m314.835 379.024c0 5.498-2.101 11.007-6.302 15.208-6.312 6.312-15.569 7.877-23.332 4.716.412-.35.813-.721 1.195-1.102 4.201-4.201 6.302-9.699 6.302-15.208s-2.101-11.007-6.302-15.208l-29.14-29.14c-1.205-1.205-1.884-2.842-1.884-4.551v-24.382c0-9.071-5.488-17.092-13.417-20.408 3.954-3.419 9.154-5.406 14.827-5.21 11.656.412 20.727 10.348 20.727 22.004v24.382c0 1.709.679 3.346 1.884 4.551l29.14 29.14c4.202 4.201 6.302 9.71 6.302 15.208z" fill="#838383"/><g><path d="m335.069 242.257c3.134 0 5.675-2.541 5.675-5.675v-22.606c0-38.276-25.377-70.619-60.223-81.136-3.853-1.163-6.519-4.67-6.519-8.695v-24.157h-36.007v24.157c0 4.025-2.665 7.532-6.519 8.695-34.845 10.517-60.223 42.86-60.223 81.136v22.606c0 3.134 2.541 5.675 5.675 5.675z" fill="#60b7ff"/></g><g><path d="m216.924 203.961v38.293h-15.445v-38.293c0-4.263 3.46-7.722 7.722-7.722 4.274-.001 7.723 3.459 7.723 7.722z" fill="#1c90d1"/></g><g><path d="m310.521 205.155v37.099h-15.445v-37.099c0-4.273 3.449-7.722 7.723-7.722 4.262 0 7.722 3.449 7.722 7.722z" fill="#1c90d1"/></g><g><g><path d="m321.613 242.257v-28.285c0-30.956-22.108-52.168-53.381-63.386-7.979-2.865-13.364-10.359-13.364-18.842v-31.758h19.131v24.162c0 3.976 2.585 7.513 6.393 8.651 34.913 10.48 60.353 42.854 60.353 81.173v22.61c0 3.134-2.541 5.675-5.675 5.675z" fill="#26a6fe"/></g></g><g><circle cx="254.663" cy="58.648" fill="#fed2a4" r="58.648"/></g><g><path d="m254.642 93.431c-8.221 0-15.793-3.756-20.774-10.305-2.582-3.395-1.923-8.24 1.472-10.822 3.396-2.582 8.241-1.922 10.822 1.472 2.035 2.676 5.126 4.211 8.481 4.211 3.372 0 6.473-1.547 8.507-4.244 2.569-3.404 7.413-4.081 10.816-1.513 3.405 2.569 4.081 7.411 1.513 10.816-4.981 6.6-12.576 10.385-20.837 10.385z" fill="#f6a96c"/></g><g><path d="m313.313 58.647c0 32.387-26.259 58.646-58.646 58.646-10.921 0-21.152-2.983-29.905-8.189 4.309 1.012 8.807 1.55 13.43 1.55 32.396 0 58.655-26.25 58.655-58.646 0-21.466-11.539-40.244-28.75-50.457 25.918 6.065 45.216 29.332 45.216 57.096z" fill="#ffbd86"/></g><g><path d="m172.323 512c3.134 0 5.675-2.541 5.675-5.675v-20.094c0-34.876-23.123-64.346-54.874-73.929-3.511-1.06-5.94-4.255-5.94-7.923v-22.011h-32.807v22.011c0 3.668-2.428 6.863-5.94 7.923-31.75 9.583-54.873 39.053-54.873 73.929v20.094c0 3.134 2.541 5.675 5.675 5.675z" fill="#57be92"/></g><g><path d="m65.862 477.11v34.885h-15.445v-34.885c0-4.273 3.46-7.722 7.722-7.722 4.274 0 7.723 3.449 7.723 7.722z" fill="#067c4c"/></g><g><path d="m151.139 478.191v33.804h-15.445v-33.804c0-4.263 3.46-7.723 7.722-7.723 4.263.001 7.723 3.461 7.723 7.723z" fill="#067c4c"/></g><g><g><path d="m160.566 512v-25.773c0-28.206-20.145-47.534-48.64-57.756-7.271-2.61-12.177-9.439-12.177-17.168v-28.937h17.432v22.016c0 3.622 2.355 6.845 5.825 7.883 31.811 9.549 54.992 39.048 54.992 73.963v20.098c0 3.134-2.541 5.675-5.675 5.675h-11.757z" fill="#09a76d"/></g></g><g><circle cx="99.563" cy="344.7" fill="#fed2a4" r="53.438"/></g><g><path d="m153.003 344.699c0 29.51-23.926 53.437-53.436 53.437-9.951 0-19.273-2.718-27.249-7.461 3.927.923 8.025 1.412 12.237 1.412 29.518 0 53.445-23.918 53.445-53.436 0-19.559-10.514-36.669-26.196-45.975 23.615 5.525 41.199 26.725 41.199 52.023z" fill="#ffbd86"/></g><g><path d="m482.761 512c3.134 0 5.675-2.541 5.675-5.675v-20.094c0-34.876-23.123-64.346-54.874-73.929-3.511-1.06-5.94-4.255-5.94-7.923v-22.011h-32.808v22.011c0 3.668-2.428 6.863-5.94 7.923-31.75 9.583-54.873 39.053-54.873 73.929v20.094c0 3.134 2.541 5.675 5.675 5.675z" fill="#57be92"/></g><g><path d="m376.306 477.11v34.885h-15.445v-34.885c0-4.273 3.46-7.722 7.723-7.722 4.262 0 7.722 3.449 7.722 7.722z" fill="#067c4c"/></g><g><path d="m461.583 478.191v33.804h-15.445v-33.804c0-4.263 3.449-7.723 7.722-7.723 4.263.001 7.723 3.461 7.723 7.723z" fill="#067c4c"/></g><g><g><path d="m471.004 512v-25.773c0-28.206-20.145-47.534-48.64-57.756-7.27-2.61-12.177-9.439-12.177-17.168v-28.937h17.432v22.016c0 3.622 2.355 6.845 5.825 7.883 31.811 9.549 54.992 39.048 54.992 73.963v20.098c0 3.134-2.541 5.675-5.675 5.675h-11.757z" fill="#09a76d"/></g></g><g><circle cx="410.001" cy="344.7" fill="#fed2a4" r="53.438"/></g><g><path d="m463.441 344.699c0 29.51-23.926 53.437-53.436 53.437-9.951 0-19.273-2.718-27.249-7.461 3.927.923 8.025 1.412 12.237 1.412 29.518 0 53.445-23.918 53.445-53.436 0-19.559-10.514-36.669-26.196-45.975 23.615 5.525 41.199 26.725 41.199 52.023z" fill="#ffbd86"/></g></g></svg>