<svg id="Capa_1" enable-background="new 0 0 512 512" height="512" viewBox="0 0 512 512" width="512" xmlns="http://www.w3.org/2000/svg"><g><g><path d="m436.75 331.25h-361.5c-6.134 0-12.722-9.305-15-15l-59.177-145.06c-1.849-4.621-1.284-9.858 1.506-13.979 2.791-4.122 7.443-6.591 12.421-6.591 169.519 0 227.022-111.086 227.583-112.208 2.541-5.082 7.735-8.292 13.417-8.292 5.682 0 10.876 3.21 13.417 8.292.12.236 14.72 28.463 49.891 56.217 47.081 37.152 106.861 55.991 177.67 55.991h.021c4.978 0 9.631 2.469 12.422 6.59 2.79 4.122 3.355 9.359 1.506 13.98l-59.177 145.06c-2.277 5.695-8.866 15-15 15z" fill="#76cefb"/></g><path d="m436.75 331.25c6.134 0 12.723-9.305 15-15l59.177-145.06c1.849-4.621 1.284-9.858-1.506-13.98-2.791-4.121-7.444-6.59-12.422-6.59-.009 0-.013 0-.021 0-70.809 0-130.589-18.839-177.67-55.991-35.171-27.754-49.771-55.98-49.891-56.217-2.541-5.082-7.735-8.292-13.417-8.292v301.13z" fill="#6897f4"/><g><path d="m256.001 481.88c-1.921 0-47.569-.134-94.014-11.745-84.086-21.024-101.737-62.523-101.737-93.635 0-8.284 6.716-15 15-15h361.5c8.284 0 15 6.716 15 15 0 31.109-17.65 72.605-101.736 93.631-46.445 11.613-92.093 11.749-94.013 11.749z" fill="#76cefb"/></g><path d="m436.75 361.5h-180.75v120.38h.001c1.92 0 47.567-.136 94.013-11.749 84.086-21.026 101.736-62.522 101.736-93.631 0-8.284-6.716-15-15-15z" fill="#6897f4"/><g><path d="m60.25 376.5v-60.25h391.5v60.25z" fill="#464b52"/></g><path d="m256 316.25h195.75v60.25h-195.75z" fill="#292b2f"/><g><path d="m256 271c-34.152 0-61.938-27.785-61.938-61.938s27.785-61.938 61.938-61.938 61.938 27.785 61.938 61.938-27.786 61.938-61.938 61.938z" fill="#faf139"/></g><path d="m317.938 209.062c0-34.152-27.785-61.938-61.938-61.938v123.876c34.152 0 61.938-27.785 61.938-61.938z" fill="#f5d953"/></g></svg>